<svg xmlns="http://www.w3.org/2000/svg" xmlns:svg="http://www.w3.org/2000/svg" id="svg120584" width="643.388" height="640.285" version="1.1" viewBox="0 0 170.23 169.409"><defs id="defs120581"><marker style="overflow:visible" id="Arrow1Lend" orient="auto" refX="0" refY="0"><path style="fill:context-stroke;fill-rule:evenodd;stroke:context-stroke;stroke-width:1pt" id="path74036" d="M 0,0 5,-5 -12.5,0 5,5 Z" transform="matrix(-0.8,0,0,-0.8,-10,0)"/></marker><rect id="rect123339" width="693.644" height="537.155" x="72.625" y="304.837"/><rect id="rect123339-4" width="337.623" height="47.019" x="72.625" y="304.837"/><rect id="rect123339-6" width="700.36" height="62.822" x="72.625" y="304.837"/><rect id="rect123339-6-6" width="729.581" height="164.839" x="72.625" y="304.837"/><rect id="rect123339-3" width="764.456" height="431.653" x="72.625" y="304.837"/><rect id="rect123339-6-6-3" width="729.581" height="164.839" x="72.625" y="304.837"/><marker style="overflow:visible" id="Arrow1Lend-6" orient="auto" refX="0" refY="0"><path style="fill:context-stroke;fill-rule:evenodd;stroke:context-stroke;stroke-width:1pt" id="path74036-2" d="M 0,0 5,-5 -12.5,0 5,5 Z" transform="matrix(-0.8,0,0,-0.8,-10,0)"/></marker><marker style="overflow:visible" id="Arrow1Lend-0" orient="auto" refX="0" refY="0"><path style="fill:context-stroke;fill-rule:evenodd;stroke:context-stroke;stroke-width:1pt" id="path74036-6" d="M 0,0 5,-5 -12.5,0 5,5 Z" transform="matrix(-0.8,0,0,-0.8,-10,0)"/></marker><marker style="overflow:visible" id="Arrow1Lend-6-2" orient="auto" refX="0" refY="0"><path style="fill:context-stroke;fill-rule:evenodd;stroke:context-stroke;stroke-width:1pt" id="path74036-2-6" d="M 0,0 5,-5 -12.5,0 5,5 Z" transform="matrix(-0.8,0,0,-0.8,-10,0)"/></marker></defs><g id="layer1" transform="translate(-4.1237957,-7.9323904)"><rect style="fill:#ccc;stroke:#000;stroke-width:.0902224;stop-color:#000" id="rect221608-5" width="85.898" height="8.679" x="20.05" y="9.377" rx=".607" ry=".368"/><rect style="fill:#ccc;stroke:#000;stroke-width:.172692;stop-color:#000" id="rect221608-5-2" width="155.043" height="31.98" x="16.781" y="120.404" rx="1.073" ry=".763"/><text id="text123337" transform="matrix(0.26458333,0,0,0.26458333,-13.807021,-70.659839)" xml:space="preserve" style="font-style:normal;font-variant:normal;font-weight:400;font-stretch:normal;font-size:24px;line-height:1.25;font-family:'Noto Sans Mono';-inkscape-font-specification:'Noto Sans Mono';letter-spacing:0;word-spacing:0;white-space:pre;shape-inside:url(#rect123339)"><tspan id="tspan121707" x="72.625" y="326.673">&lt;k&gt; (forall X : T :: Expr) ~&gt; Rest &lt;/k&gt; </tspan><tspan id="tspan121709" x="72.625" y="356.673">&lt;locals&gt; Locals &lt;/locals&gt;</tspan></text><text id="text123337-7" transform="matrix(0.26458333,0,0,0.26458333,-14.444499,40.331766)" xml:space="preserve" style="font-style:normal;font-variant:normal;font-weight:400;font-stretch:normal;font-size:24px;line-height:1.25;font-family:'Noto Sans Mono';-inkscape-font-specification:'Noto Sans Mono';letter-spacing:0;word-spacing:0;white-space:pre;shape-inside:url(#rect123339-3)"><tspan id="tspan121711" x="72.625" y="326.673">&lt;k&gt; #Forall ?X . </tspan><tspan id="tspan121713" x="72.625" y="356.673"> #if PC1 #then FuncPattern1(?X) </tspan><tspan id="tspan121715" x="72.625" y="386.673"> ... </tspan><tspan id="tspan121717" x="72.625" y="416.673"> #elif PCN #then FuncPatternN(?X) </tspan><tspan id="tspan121719" x="72.625" y="446.673">~&gt; Rest </tspan><tspan id="tspan121721" x="72.625" y="476.673">&lt;/k&gt; </tspan><tspan id="tspan121723" x="72.625" y="506.673">&lt;locals&gt; Locals &lt;/locals&gt;</tspan></text><rect style="fill:#ccc;stroke:#000;stroke-width:.2;stop-color:#000" id="rect221608" width="155.403" height="23.575" x="7.369" y="44.411" rx="1.098" ry="1"/><rect style="fill:#ccc;stroke:#000;stroke-width:.132059;stop-color:#000" id="rect221608-4" width="134.347" height="11.889" x="21.05" y="71.685" rx=".949" ry=".504"/><text id="text123337-5" transform="matrix(0.26458333,0,0,0.26458333,-5.1800687,-33.028009)" xml:space="preserve" style="font-style:normal;font-variant:normal;font-weight:400;font-stretch:normal;font-size:24px;line-height:1.25;font-family:'Noto Sans Mono';-inkscape-font-specification:'Noto Sans Mono';letter-spacing:0;word-spacing:0;white-space:pre;shape-inside:url(#rect123339-6)"><tspan id="tspan121725" x="72.625" y="326.673">&lt;k&gt; Expr &lt;/k&gt; </tspan><tspan id="tspan121727" x="72.625" y="356.673">&lt;locals&gt; Locals[x &lt;- ?X:Int] &lt;/locals&gt;</tspan></text><text id="text123337-5-9" transform="matrix(0.26458333,0,0,0.26458333,4.2274943,-6.3772908)" xml:space="preserve" style="font-style:normal;font-variant:normal;font-weight:400;font-stretch:normal;font-size:24px;line-height:1.25;font-family:'Noto Sans Mono';-inkscape-font-specification:'Noto Sans Mono';letter-spacing:0;word-spacing:0;white-space:pre;shape-inside:url(#rect123339-6-6)"><tspan id="tspan121729" x="72.625" y="326.673">&lt;k&gt; FuncPattern1(?X) &lt;/k&gt; #And PC1</tspan></text><rect style="fill:#ccc;stroke:#000;stroke-width:.132059;stop-color:#000" id="rect221608-4-6" width="134.347" height="11.889" x="21.05" y="96.086" rx=".949" ry=".504"/><text id="text123337-5-9-7" transform="matrix(0.26458333,0,0,0.26458333,3.9465976,17.509525)" xml:space="preserve" style="font-style:normal;font-variant:normal;font-weight:400;font-stretch:normal;font-size:24px;line-height:1.25;font-family:'Noto Sans Mono';-inkscape-font-specification:'Noto Sans Mono';letter-spacing:0;word-spacing:0;white-space:pre;shape-inside:url(#rect123339-6-6-3)"><tspan id="tspan121733" x="72.625" y="326.673">&lt;k&gt; FuncPatternN(?X) &lt;/k&gt; #And PCN</tspan></text><rect style="font-variation-settings:normal;opacity:1;vector-effect:none;fill:none;fill-opacity:1;stroke:#000;stroke-width:.21236;stroke-linecap:butt;stroke-linejoin:miter;stroke-miterlimit:4;stroke-dasharray:none;stroke-dashoffset:0;stroke-opacity:1;-inkscape-stroke:none;stop-color:#000;stop-opacity:1" id="rect221778-5" width="170.017" height="19.728" x="4.23" y="8.039" rx="1.238" ry="1"/><rect style="fill:none;stroke:#000;stroke-width:.21236;stop-color:#000" id="rect221778-5-2" width="170.017" height="58.071" x="4.23" y="119.164" rx="1.238" ry="1"/><path style="fill:none;stroke:#000;stroke-width:.265;stroke-linecap:butt;stroke-linejoin:miter;stroke-miterlimit:4;stroke-dasharray:none;stroke-opacity:1;marker-end:url(#Arrow1Lend)" id="path221937" d="m 103.52888,18.296635 c 0.28624,12.289514 2.0081,12.429254 -6.231586,12.484667 -6.415436,0.04315 -5.567096,2.644495 -5.823048,12.457397"/><path style="fill:none;stroke:#000;stroke-width:.264583px;stroke-linecap:butt;stroke-linejoin:miter;stroke-opacity:1;marker-end:url(#Arrow1Lend)" id="path221939" d="m 12.900478,102.01199 6.959096,0.0462"/><path style="fill:none;stroke:#000;stroke-width:.264583px;stroke-linecap:butt;stroke-linejoin:miter;stroke-opacity:1;marker-end:url(#Arrow1Lend-6)" id="path221939-9" d="m 12.807427,77.610892 6.959096,0.04623"/><path style="fill:none;stroke:#000;stroke-width:.264583px;stroke-linecap:butt;stroke-linejoin:miter;stroke-opacity:1" id="path58608" d="M 12.900478,102.01199 V 67.980627"/><path style="fill:none;stroke:#000;stroke-width:.264583px;stroke-linecap:butt;stroke-linejoin:miter;stroke-opacity:1" id="path221939-1" d="m 163.33025,102.04877 -7.78603,-0.0462"/><path style="fill:none;stroke:#000;stroke-width:.264583px;stroke-linecap:butt;stroke-linejoin:miter;stroke-opacity:1" id="path221939-9-8" d="m 163.2372,77.647685 -7.78603,-0.0462"/><path style="fill:none;stroke:#000;stroke-width:.264583px;stroke-linecap:butt;stroke-linejoin:miter;stroke-opacity:1;marker-end:url(#Arrow1Lend)" id="path58608-7" d="M 163.2372,77.647685 V 119.96458"/><text style="font-size:10.5833px;line-height:1.25;font-family:sans-serif;letter-spacing:0;word-spacing:0;stroke-width:.264583" id="text61031" x="85.107" y="-85.726" transform="rotate(90)" xml:space="preserve"><tspan id="tspan61029" x="85.107" y="-85.726" style="stroke-width:.264583">...</tspan></text><text style="font-size:6.46225px;line-height:1.25;font-family:sans-serif;letter-spacing:0;word-spacing:0;stroke-width:.161557" id="text121049" x="71.627" y="-6.403" transform="rotate(90)" xml:space="preserve"><tspan id="tspan121047" x="71.627" y="-6.403" style="stroke-width:.161557">kore-exec</tspan></text></g></svg>