<svg xmlns="http://www.w3.org/2000/svg" xmlns:svg="http://www.w3.org/2000/svg" id="svg120584" width="648.337" height="654.98" version="1.1" viewBox="0 0 171.539 173.297"><defs id="defs120581"><marker style="overflow:visible" id="Arrow1Lend" orient="auto" refX="0" refY="0"><path style="fill:context-stroke;fill-rule:evenodd;stroke:context-stroke;stroke-width:1pt" id="path74036" d="M 0,0 5,-5 -12.5,0 5,5 Z" transform="matrix(-0.8,0,0,-0.8,-10,0)"/></marker><rect id="rect123339" width="693.644" height="537.155" x="72.625" y="304.837"/><rect id="rect123339-4" width="337.623" height="47.019" x="72.625" y="304.837"/><rect id="rect123339-6" width="700.36" height="62.822" x="72.625" y="304.837"/><rect id="rect123339-6-6" width="729.581" height="164.839" x="72.625" y="304.837"/><rect id="rect123339-3" width="693.644" height="537.155" x="72.625" y="304.837"/></defs><g id="layer1" transform="translate(-1.8976883,-3.8308519)"><rect style="fill:#ccc;stroke:#000;stroke-width:.153666;stop-color:#000" id="rect221608-5" width="120.081" height="18.01" x="19.138" y="8.355" rx=".848" ry=".764"/><rect style="fill:#ccc;stroke:#000;stroke-width:.172692;stop-color:#000" id="rect221608-5-2" width="151.817" height="17.991" x="19.306" y="136.279" rx="1.073" ry=".763"/><text id="text123337" transform="matrix(0.26458333,0,0,0.26458333,-13.807021,-70.659839)" xml:space="preserve" style="font-style:normal;font-variant:normal;font-weight:400;font-stretch:normal;font-size:24px;line-height:1.25;font-family:'Noto Sans Mono';-inkscape-font-specification:'Noto Sans Mono';letter-spacing:0;word-spacing:0;white-space:pre;shape-inside:url(#rect123339)"><tspan id="tspan223910" x="72.625" y="326.673">&lt;k&gt; (forall x : int :: f(x, y) &gt; 3 </tspan><tspan id="tspan223912" x="72.625" y="356.673"> || f(y, x) &gt; 3) </tspan><tspan id="tspan223914" x="72.625" y="386.673"> ~&gt; Rest &lt;/k&gt; </tspan><tspan id="tspan223916" x="72.625" y="416.673">&lt;locals&gt; Locals &lt;/locals&gt;</tspan></text><text id="text123337-7" transform="matrix(0.26458333,0,0,0.26458333,-13.386165,57.265101)" xml:space="preserve" style="font-style:normal;font-variant:normal;font-weight:400;font-stretch:normal;font-size:24px;line-height:1.25;font-family:'Noto Sans Mono';-inkscape-font-specification:'Noto Sans Mono';letter-spacing:0;word-spacing:0;white-space:pre;shape-inside:url(#rect123339-3)"><tspan id="tspan223918" x="72.625" y="326.673">&lt;k&gt; #Forall ?X . #lookup(f, ?X, ?Y) &gt;Int 3 </tspan><tspan id="tspan223920" x="72.625" y="356.673"> orBool #lookup(f, ?Y, ?X) &gt;Int 3 </tspan><tspan id="tspan223922" x="72.625" y="386.673"> ~&gt; Rest </tspan><tspan id="tspan223924" x="72.625" y="416.673">&lt;/k&gt; </tspan><tspan id="tspan223926" x="72.625" y="446.673">&lt;locals&gt; Locals &lt;/locals&gt;</tspan></text><rect style="fill:#ccc;stroke:#000;stroke-width:.2;stop-color:#000" id="rect221608" width="155.403" height="23.575" x="16.365" y="60.286" rx="1.098" ry="1"/><rect style="fill:#ccc;stroke:#000;stroke-width:.213765;stop-color:#000" id="rect221608-4" width="155.403" height="26.932" x="16.581" y="90.901" rx="1.098" ry="1.142"/><text id="text123337-5" transform="matrix(0.26458333,0,0,0.26458333,3.815765,-17.153008)" xml:space="preserve" style="font-style:normal;font-variant:normal;font-weight:400;font-stretch:normal;font-size:24px;line-height:1.25;font-family:'Noto Sans Mono';-inkscape-font-specification:'Noto Sans Mono';letter-spacing:0;word-spacing:0;white-space:pre;shape-inside:url(#rect123339-6)"><tspan id="tspan223928" x="72.625" y="326.673">&lt;k&gt; f(x, y) &gt; 3 || f(y, x) &gt; 3 &lt;/k&gt; </tspan><tspan id="tspan223930" x="72.625" y="356.673">&lt;locals&gt; Locals[x &lt;- ?X:Int] &lt;/locals&gt;</tspan></text><text id="text123337-5-9" transform="matrix(0.26458333,0,0,0.26458333,0.96083096,12.9425)" xml:space="preserve" style="font-style:normal;font-variant:normal;font-weight:400;font-stretch:normal;font-size:24px;line-height:1.25;font-family:'Noto Sans Mono';-inkscape-font-specification:'Noto Sans Mono';letter-spacing:0;word-spacing:0;white-space:pre;shape-inside:url(#rect123339-6-6)"><tspan id="tspan223932" x="72.625" y="326.673">&lt;k&gt; #lookup(f, ?X, ?Y) &gt;Int 3 </tspan><tspan id="tspan223934" x="72.625" y="356.673"> orBool #lookup(f, ?Y, ?X) &gt;Int 3 &lt;/k&gt; </tspan><tspan id="tspan223936" x="72.625" y="386.673">&lt;locals&gt; Locals[x &lt;- ?X:Int] &lt;/locals&gt;</tspan></text><rect style="fill:none;stroke:#000;stroke-width:.2;stop-color:#000" id="rect221778" width="149.945" height="41.995" x="1.998" y="3.931" rx="1.098" ry="1"/><rect style="fill:none;stroke:#000;stroke-width:.21236;stop-color:#000" id="rect221778-5" width="169.101" height="41.983" x="4.23" y="135.039" rx="1.238" ry="1"/><path style="fill:none;stroke:#000;stroke-width:.265;stroke-linecap:butt;stroke-linejoin:miter;stroke-miterlimit:4;stroke-dasharray:none;stroke-opacity:1;marker-end:url(#Arrow1Lend)" id="path221937" d="m 138.9942,17.646247 c 6.48394,0.02902 16.38471,-1.142139 19.68261,2.231855 4.31717,4.416779 2.79769,28.414722 -0.0385,30.695114 -2.28747,1.839211 -42.69485,-0.321987 -58.04053,-0.03463 -10.272206,0.192354 -8.83295,0.522566 -9.123534,9.10428"/><path style="fill:none;stroke:#000;stroke-width:.264583px;stroke-linecap:butt;stroke-linejoin:miter;stroke-opacity:1;marker-end:url(#Arrow1Lend)" id="path221939" d="m 91.800865,83.874044 -0.04623,6.959091"/><path style="fill:none;stroke:#000;stroke-width:.264583px;stroke-linecap:butt;stroke-linejoin:miter;stroke-opacity:1;marker-end:url(#Arrow1Lend)" id="path221941" d="m 92.515622,118.18101 0.134274,17.55462"/></g></svg>